<svg xmlns="http://www.w3.org/2000/svg" width="78" height="78" viewBox="0 0 78 78"><path d="M291.834,508.668q-.487.079-.978.146Q291.346,508.747,291.834,508.668Zm0,0" transform="translate(-246.545 -431.176)" fill="#fff"/><path d="M299.806,507.793c-.155.029-.311.055-.466.082C299.5,507.848,299.65,507.822,299.806,507.793Zm0,0" transform="translate(-253.737 -430.434)" fill="#fff"/><path d="M278.756,510.34q-.57.064-1.147.113Q278.185,510.4,278.756,510.34Zm0,0" transform="translate(-235.317 -432.593)" fill="#fff"/><path d="M287,509.738c-.183.024-.367.047-.55.068C286.629,509.785,286.812,509.763,287,509.738Zm0,0" transform="translate(-242.807 -432.083)" fill="#fff"/><path d="M307.076,506.41l-.412.086Zm0,0" transform="translate(-259.946 -429.262)" fill="#fff"/><path d="M324.816,502.113l-.332.092Zm0,0" transform="translate(-275.051 -425.619)" fill="#fff"/><path d="M319.42,503.543c-.12.032-.241.064-.362.094Q319.24,503.591,319.42,503.543Zm0,0" transform="translate(-270.452 -426.831)" fill="#fff"/><path d="M312.451,505.254c-.127.03-.256.058-.384.086C312.195,505.312,312.323,505.284,312.451,505.254Zm0,0" transform="translate(-264.525 -428.282)" fill="#fff"/><path d="M274.1,511.09q-.308.026-.617.046Q273.789,511.116,274.1,511.09Zm0,0" transform="translate(-231.817 -433.228)" fill="#fff"/><path d="M78,39A39,39,0,1,0,39,78c.229,0,.457,0,.686-.009V47.631H31.307V37.866h8.379V30.681c0-8.334,5.087-12.869,12.521-12.869a68.973,68.973,0,0,1,7.512.384V26.9H54.593c-4.044,0-4.827,1.922-4.827,4.742v6.219h9.67l-1.26,9.765h-8.41V76.493A39.021,39.021,0,0,0,78,39Zm0,0" fill="#fff"/><path d="M266.113,511.43q-.609.039-1.222.061Q265.5,511.47,266.113,511.43Zm0,0" transform="translate(-224.536 -433.517)" fill="#fff"/><path d="M261.151,511.836q-.323.011-.647.016Q260.828,511.847,261.151,511.836Zm0,0" transform="translate(-220.818 -433.861)" fill="#fff"/></svg>