<svg xmlns="http://www.w3.org/2000/svg" width="71.213" height="56.379" viewBox="0 0 71.213 56.379"><g transform="translate(0 -2.499)"><path d="M36.467,58.876c11.068,0,26.527.267,32.15-10.982,2.122-4.3,2.6-9.264,2.6-13.946h0a25.138,25.138,0,0,0-5.786-16.768A22.426,22.426,0,0,0,66.566,10.1c0-3.157-.712-4.742-2.166-7.6-6.647,0-10.949,1.246-15.993,5.169a51.808,51.808,0,0,0-11.928-1.35,57.449,57.449,0,0,0-13.16,1.469C18.2,3.822,13.9,2.5,7.178,2.5c-1.436,2.863-2.163,4.448-2.163,7.6A22.762,22.762,0,0,0,6.157,17.27,25.1,25.1,0,0,0,0,33.948,31.2,31.2,0,0,0,3,47.9c5.845,11.379,22.224,10.979,33.47,10.979ZM20.773,29.233a60.456,60.456,0,0,1,8.308.881c10.142,1.543,15.474-.881,21.69-.881,6.94,0,10.9,5.682,10.9,12.127,0,12.9-11.913,14.872-22.343,14.872H32.182C21.8,56.232,9.869,54.253,9.869,41.36c0-6.445,3.958-12.127,10.9-12.127Z" transform="translate(0 0)" fill="#fff"/><path d="M20.265,29.052c3.828,0,5.445-5.021,5.445-8.092s-1.617-8.092-5.445-8.092S14.82,17.89,14.82,20.961s1.617,8.092,5.445,8.092Z" transform="translate(29.154 20.4)" fill="#fff"/><path d="M11.08,29.05c3.828,0,5.445-5.021,5.445-8.092S14.9,12.87,11.08,12.87s-5.445,5.021-5.445,8.092S7.252,29.05,11.08,29.05Z" transform="translate(11.085 20.402)" fill="#fff"/></g></svg>