<svg xmlns="http://www.w3.org/2000/svg" width="75.701" height="75.716" viewBox="0 0 75.701 75.716"><g transform="translate(-0.449)"><path d="M75.958,22.261a27.666,27.666,0,0,0-1.76-9.186A19.4,19.4,0,0,0,63.119,2,27.738,27.738,0,0,0,53.934.237C49.881.044,48.594,0,38.315,0S26.748.044,22.71.222a27.674,27.674,0,0,0-9.185,1.76A18.474,18.474,0,0,0,6.809,6.36a18.642,18.642,0,0,0-4.363,6.7,27.741,27.741,0,0,0-1.76,9.185C.494,26.3.449,27.585.449,37.865s.044,11.567.222,15.6a27.665,27.665,0,0,0,1.76,9.186A19.393,19.393,0,0,0,13.51,73.734a27.742,27.742,0,0,0,9.186,1.76c4.038.178,5.325.222,15.6.222s11.567-.044,15.6-.222a27.66,27.66,0,0,0,9.185-1.76A19.367,19.367,0,0,0,74.169,62.655a27.76,27.76,0,0,0,1.76-9.186c.177-4.038.222-5.325.222-15.6S76.135,26.3,75.958,22.261ZM69.14,53.174a20.753,20.753,0,0,1-1.3,7.026,12.56,12.56,0,0,1-7.189,7.189,20.826,20.826,0,0,1-7.026,1.3c-3.994.178-5.191.222-15.294.222s-11.315-.044-15.294-.222a20.742,20.742,0,0,1-7.026-1.3,11.651,11.651,0,0,1-4.348-2.825,11.772,11.772,0,0,1-2.825-4.348,20.83,20.83,0,0,1-1.3-7.026C7.357,49.2,7.313,48,7.313,37.895S7.357,26.58,7.535,22.6a20.742,20.742,0,0,1,1.3-7.026,11.508,11.508,0,0,1,2.84-4.349A11.753,11.753,0,0,1,16.024,8.4,20.841,20.841,0,0,1,23.05,7.1c3.994-.177,5.192-.222,15.294-.222,10.117,0,11.315.044,15.294.222a20.753,20.753,0,0,1,7.026,1.3,11.642,11.642,0,0,1,4.348,2.825,11.769,11.769,0,0,1,2.825,4.349,20.837,20.837,0,0,1,1.3,7.026c.177,3.994.222,5.191.222,15.294S69.317,49.181,69.14,53.174Zm0,0" transform="translate(0)" fill="#fff"/><path d="M144.4,124.5a19.45,19.45,0,1,0,19.45,19.45A19.455,19.455,0,0,0,144.4,124.5Zm0,32.067a12.617,12.617,0,1,1,12.617-12.617A12.619,12.619,0,0,1,144.4,156.567Zm0,0" transform="translate(-106.085 -106.085)" fill="#fff"/><path d="M371.531,93.142A4.541,4.541,0,1,1,366.99,88.6,4.541,4.541,0,0,1,371.531,93.142Zm0,0" transform="translate(-308.456 -75.496)" fill="#fff"/></g></svg>