<svg xmlns="http://www.w3.org/2000/svg" width="79.003" height="64.19" viewBox="0 0 79.003 64.19"><g transform="translate(0 -48)"><g transform="translate(0 48)"><g transform="translate(0 0)"><path d="M79,55.6a33.768,33.768,0,0,1-9.332,2.558A16.105,16.105,0,0,0,76.8,49.2a32.367,32.367,0,0,1-10.27,3.921A16.2,16.2,0,0,0,38.509,64.2a16.677,16.677,0,0,0,.375,3.693A45.844,45.844,0,0,1,5.5,50.953,16.2,16.2,0,0,0,10.478,72.6,16,16,0,0,1,3.16,70.6v.178A16.271,16.271,0,0,0,16.136,86.7a16.165,16.165,0,0,1-4.246.533,14.32,14.32,0,0,1-3.066-.277A16.35,16.35,0,0,0,23.958,98.236a32.543,32.543,0,0,1-20.081,6.908A30.335,30.335,0,0,1,0,104.921a45.6,45.6,0,0,0,24.846,7.268c29.8,0,46.1-24.688,46.1-46.088,0-.716-.025-1.407-.059-2.094A32.311,32.311,0,0,0,79,55.6Z" transform="translate(0 -48)" fill="#fff"/></g></g></g></svg>