<svg xmlns="http://www.w3.org/2000/svg" width="83.654" height="58.571" viewBox="0 0 83.654 58.571"><g transform="translate(0 6.082)"><path d="M81.93,3.083a10.48,10.48,0,0,0-7.373-7.374C68.011-6.082,41.826-6.082,41.826-6.082s-26.184,0-32.73,1.723A10.693,10.693,0,0,0,1.723,3.083C0,9.629,0,23.2,0,23.2S0,36.847,1.723,43.324A10.482,10.482,0,0,0,9.1,50.7c6.615,1.792,32.731,1.792,32.731,1.792s26.184,0,32.73-1.723a10.481,10.481,0,0,0,7.374-7.373c1.722-6.546,1.722-20.121,1.722-20.121S83.723,9.629,81.93,3.083ZM33.489,35.745V10.663L55.264,23.2Zm0,0" fill="#fff"/></g></svg>